<?xml version="1.0" standalone="no"?>
<!DOCTYPE svg PUBLIC "-//W3C//DTD SVG 20010904//EN"
 "http://www.w3.org/TR/2001/REC-SVG-20010904/DTD/svg10.dtd">
<svg version="1.0" xmlns="http://www.w3.org/2000/svg"
 width="825.000000pt" height="711.000000pt" viewBox="0 0 825.000000 711.000000"
 preserveAspectRatio="xMidYMid meet">

<g transform="translate(0.000000,711.000000) scale(0.100000,-0.100000)"
fill="#000000" stroke="none">
<path d="M3409 5775 c-93 -25 -185 -111 -211 -197 -6 -21 -17 -43 -25 -49 -11
-9 -13 0 -13 53 0 70 -19 138 -50 178 -19 25 -19 25 -34 5 -30 -41 -85 -161
-92 -201 -7 -50 16 -138 47 -178 l22 -28 -24 -49 -23 -50 -13 51 c-7 28 -20
64 -28 81 -18 33 -83 109 -95 109 -15 0 -50 -147 -50 -214 0 -79 31 -149 85
-190 l32 -25 -15 -70 -15 -71 -29 49 c-33 60 -89 116 -140 142 l-38 19 0 -87
c0 -123 19 -186 71 -239 22 -23 59 -50 80 -59 21 -10 39 -25 40 -34 0 -9 3
-46 8 -83 4 -38 6 -68 6 -68 -1 0 -20 17 -42 39 -23 21 -62 48 -87 61 -53 25
-126 38 -126 22 0 -26 60 -175 84 -210 32 -46 106 -90 168 -98 45 -6 45 -7 70
-70 14 -35 25 -64 24 -64 0 0 -28 11 -61 25 -46 19 -78 25 -137 25 -43 0 -78
-3 -78 -6 0 -16 94 -136 135 -172 53 -46 122 -67 194 -59 l46 5 44 -60 c38
-54 40 -60 20 -53 -56 17 -158 17 -213 0 -31 -10 -56 -21 -56 -26 0 -16 118
-111 174 -139 71 -36 132 -39 207 -10 l51 19 59 -52 c33 -28 59 -52 59 -52 0
0 -39 0 -88 0 -77 0 -95 -4 -154 -32 -38 -18 -68 -36 -68 -40 0 -10 104 -69
178 -101 76 -33 157 -32 227 2 29 15 58 33 65 41 10 12 18 11 58 -10 26 -13
56 -30 67 -39 20 -15 20 -15 -2 -16 -42 0 -132 -49 -180 -96 l-47 -48 69 -18
c39 -11 104 -20 145 -20 87 -2 122 12 186 74 l42 40 48 -14 49 -14 -61 -22
c-61 -22 -154 -77 -154 -92 0 -4 7 -13 15 -20 11 -9 21 -7 47 13 40 31 102 58
185 81 61 17 64 16 135 -5 84 -25 143 -52 176 -82 21 -20 23 -20 40 -3 16 16
15 19 -18 46 -19 16 -66 42 -104 57 l-69 27 43 14 c42 14 42 14 78 -20 68 -64
107 -81 186 -82 71 0 216 29 216 44 0 4 -20 26 -46 49 -45 43 -134 91 -166 91
-10 0 -18 3 -18 8 0 11 123 73 130 64 15 -23 79 -57 125 -67 75 -18 140 -4
246 51 49 27 94 53 100 60 7 9 -8 21 -57 45 -61 30 -76 34 -156 34 l-89 0 58
51 57 51 53 -18 c73 -26 133 -24 196 6 58 27 189 133 181 146 -9 15 -106 39
-158 39 -28 0 -67 -4 -85 -10 -19 -5 -36 -8 -38 -6 -3 2 14 28 36 57 l40 53
78 1 c88 1 122 14 178 70 42 43 115 140 115 155 0 6 -30 10 -77 10 -62 0 -89
-5 -132 -25 -30 -14 -55 -24 -57 -22 -2 2 7 30 20 63 23 56 26 59 66 66 125
21 187 89 241 262 l18 59 -45 -7 c-59 -8 -120 -39 -173 -90 -39 -37 -43 -39
-37 -16 3 14 6 52 6 86 l0 60 41 18 c105 47 145 117 155 279 4 59 5 107 2 107
-3 0 -26 -11 -51 -25 -55 -31 -113 -93 -137 -147 -20 -44 -19 -45 -40 49 l-12
52 37 32 c44 39 73 94 81 153 7 49 -32 246 -49 246 -33 0 -127 -149 -127 -202
0 -40 -13 -35 -36 14 l-21 42 31 49 c24 39 31 63 34 116 4 63 2 71 -45 160
-26 52 -53 96 -60 98 -6 2 -24 -22 -39 -54 -23 -48 -28 -72 -29 -135 0 -76 0
-77 -17 -55 -10 12 -18 28 -18 35 -1 52 -98 159 -177 194 -46 20 -163 37 -163
23 0 -4 17 -39 37 -79 67 -127 143 -186 239 -186 27 0 64 -25 64 -42 0 -3 -19
-1 -42 4 -61 14 -156 4 -206 -21 -23 -12 -42 -23 -42 -26 0 -10 115 -88 163
-111 60 -28 108 -30 172 -9 25 9 49 14 53 11 13 -8 54 -97 48 -103 -3 -3 -17
2 -31 11 -62 40 -207 56 -255 26 -17 -10 25 -65 106 -139 63 -57 110 -74 193
-69 l56 3 11 -50 c21 -87 19 -91 -21 -56 -20 17 -52 39 -73 50 -41 21 -159 47
-169 38 -3 -3 15 -48 40 -100 56 -115 102 -160 187 -184 l60 -16 0 -78 c0 -43
-4 -80 -10 -84 -5 -3 -18 12 -29 33 -11 21 -38 55 -61 75 -46 42 -126 85 -137
74 -4 -4 -2 -48 4 -97 15 -115 49 -182 115 -227 26 -17 53 -33 60 -35 9 -3 5
-24 -16 -76 -15 -40 -31 -70 -36 -67 -4 2 -10 24 -14 47 -9 56 -51 132 -98
174 -21 18 -42 34 -47 34 -11 0 -31 -126 -31 -200 0 -75 16 -116 69 -173 l41
-44 -47 -64 -48 -64 -5 80 c-4 58 -13 95 -32 135 -32 66 -53 94 -66 86 -18
-11 -81 -171 -88 -223 -7 -58 13 -134 49 -179 l21 -27 -59 -54 c-32 -29 -62
-53 -67 -53 -5 0 -5 12 -1 28 5 15 8 65 7 112 0 70 -5 95 -27 144 l-27 59 -46
-64 c-100 -142 -124 -236 -86 -336 l20 -52 -55 -31 c-61 -35 -103 -52 -103
-44 0 3 9 19 20 34 11 16 27 48 36 72 18 49 22 184 6 200 -8 8 -30 -5 -74 -40
-126 -100 -151 -143 -152 -262 l-1 -74 -83 -23 -84 -24 -86 24 -87 23 3 61 c2
33 -2 79 -8 103 -13 48 -74 119 -161 186 l-57 43 -6 -31 c-17 -87 2 -188 48
-259 15 -21 24 -39 21 -39 -6 0 -147 70 -154 76 -2 2 4 22 14 46 22 55 22 151
1 203 -18 44 -117 195 -127 195 -14 0 -50 -89 -59 -144 -8 -52 2 -163 17 -190
4 -6 -2 -4 -13 5 -10 8 -42 35 -71 58 l-51 43 31 50 c29 47 32 59 32 132 0 69
-5 92 -33 156 -47 109 -48 110 -74 80 -44 -52 -71 -130 -72 -207 -1 -40 -4
-73 -7 -73 -7 0 -89 115 -89 124 0 4 16 22 35 41 58 59 70 90 70 185 -1 84
-20 190 -34 190 -15 0 -93 -86 -114 -125 -11 -22 -26 -62 -33 -90 l-12 -50
-21 47 c-12 25 -24 59 -26 75 -5 25 -1 31 42 56 53 31 88 74 109 137 17 49 38
190 29 198 -7 8 -89 -32 -131 -64 -18 -14 -48 -49 -66 -77 l-33 -52 -7 45 c-3
25 -7 64 -7 87 -1 41 0 42 37 49 99 19 153 66 212 187 22 46 40 89 40 96 0 9
-11 11 -42 6 -80 -12 -136 -36 -182 -76 -52 -46 -55 -41 -35 49 l10 49 49 -5
c103 -10 176 28 266 137 48 58 52 66 37 75 -10 6 -53 10 -95 10 -65 0 -86 -5
-137 -31 -34 -16 -61 -28 -61 -26 0 2 12 29 27 59 22 46 30 54 47 49 81 -23
126 -28 163 -17 41 12 142 70 188 106 l28 23 -49 24 c-38 18 -65 24 -124 24
-41 0 -88 -4 -105 -8 l-30 -9 24 26 c18 19 35 26 61 26 89 0 170 70 239 208
l31 62 -42 -1 c-24 0 -64 -7 -89 -14z m-9 -70 c0 -2 -28 -23 -61 -46 -34 -23
-58 -36 -54 -30 4 7 30 28 59 46 55 37 56 37 56 30z m1560 -66 c23 -20 9 -14
-37 17 -40 26 -73 49 -73 51 0 8 76 -39 110 -68z m203 -104 c3 -50 1 -77 -3
-60 -8 30 -13 162 -6 154 2 -2 6 -44 9 -94z m-2066 -37 c-2 -24 -4 -5 -4 42 0
47 2 66 4 43 2 -24 2 -62 0 -85z m232 -72 c-6 -6 -172 -27 -176 -22 -6 6 94
23 141 25 22 0 37 -1 35 -3z m1710 -8 c36 -6 62 -13 56 -14 -5 -2 -46 2 -90
10 -44 7 -69 14 -56 15 13 0 54 -4 90 -11z m291 -133 c-10 -39 -19 -61 -19
-49 -1 23 28 128 34 122 2 -2 -4 -35 -15 -73z m-2383 -70 c-1 -11 -8 5 -15 35
-22 95 -22 107 -1 45 11 -33 18 -69 16 -80z m185 -35 c-73 -30 -90 -35 -80
-24 10 10 122 54 138 53 8 0 -18 -13 -58 -29z m2175 -2 c-3 -7 -5 -2 -5 12 0
14 2 19 5 13 2 -7 2 -19 0 -25z m-133 -9 c23 -10 34 -18 26 -18 -8 0 -37 11
-65 25 -57 27 -24 22 39 -7z m-2332 -254 c17 -33 26 -55 20 -50 -6 6 -27 42
-47 80 -20 39 -29 61 -20 50 9 -11 30 -47 47 -80z m2593 18 c-47 -85 -66 -107
-30 -33 31 61 55 100 62 100 3 0 -12 -30 -32 -67z m-2315 23 c0 -4 -134 -106
-157 -120 -7 -4 -13 -5 -13 -2 0 5 160 126 167 126 1 0 3 -2 3 -4z m2149 -94
l36 -33 -50 35 c-27 19 -66 49 -85 66 l-35 32 49 -34 c26 -18 65 -48 85 -66z
m-2186 -234 c-21 -36 -95 -138 -99 -138 -5 0 42 75 74 118 24 31 41 44 25 20z
m2148 -70 c23 -33 37 -58 32 -55 -5 3 -29 34 -53 68 -24 34 -38 59 -32 55 7
-4 31 -35 53 -68z m-2351 -54 c34 -36 34 -37 5 -16 -16 11 -55 46 -85 78 l-55
58 50 -41 c28 -23 66 -58 85 -79z m2609 94 c-3 -2 -38 -34 -79 -73 l-75 -70
70 73 c38 39 74 72 79 72 5 0 7 -1 5 -2z m-363 -303 c15 -47 24 -88 22 -91 -3
-2 -15 31 -28 73 -13 43 -25 84 -27 91 -3 6 -3 12 1 12 3 0 17 -38 32 -85z
m-1986 -5 c-12 -40 -24 -69 -27 -66 -3 3 5 37 18 75 29 92 37 84 9 -9z m-187
-91 c31 -16 57 -31 57 -33 0 -5 -152 63 -160 71 -11 11 48 -11 103 -38z m2373
0 c-43 -22 -80 -38 -83 -35 -5 5 136 75 152 75 6 0 -25 -18 -69 -40z m-367
-213 c1 -111 -5 -91 -12 34 -3 59 -2 92 3 75 4 -16 8 -66 9 -109z m-1654 -6
c-4 -36 -10 -59 -12 -52 -3 8 -2 53 3 100 5 56 10 74 12 52 2 -19 0 -64 -3
-100z m-127 -97 c34 -9 61 -17 59 -19 -5 -5 -210 36 -217 43 -7 8 86 -6 158
-24z m376 -123 c4 -55 3 -66 -4 -40 -5 19 -11 71 -14 115 -4 59 -3 70 4 40 4
-22 11 -74 14 -115z m1608 130 c-40 -10 -91 -21 -115 -24 -23 -3 -1 6 48 19
50 13 101 23 115 23 14 0 -8 -8 -48 -18z m-447 -108 c-4 -35 -9 -61 -12 -58
-3 2 -1 44 3 93 5 48 10 75 12 58 2 -16 1 -58 -3 -93z m-281 -156 c-20 -48
-40 -89 -45 -92 -5 -3 7 32 27 78 20 46 38 89 41 96 3 7 7 11 10 8 2 -2 -12
-43 -33 -90z m-573 -63 c10 -24 16 -43 13 -43 -7 0 -71 139 -78 170 -6 24 24
-36 65 -127z m-428 60 c-29 -2 -78 -2 -110 0 -32 2 -8 3 52 3 61 0 87 -1 58
-3z m1505 0 c-32 -2 -84 -2 -115 0 -32 2 -6 3 57 3 63 0 89 -1 58 -3z m-1158
-183 c-30 -10 -71 -20 -90 -24 -31 -5 -32 -5 -10 5 34 14 121 38 140 37 8 0
-10 -8 -40 -18z m760 -6 c29 -8 50 -18 47 -20 -5 -6 -158 34 -167 43 -7 8 60
-5 120 -23z"/>
<path d="M4068 5330 c-133 -69 -271 -112 -451 -141 l-79 -12 6 -76 c3 -42 8
-121 11 -176 6 -97 22 -212 31 -227 3 -5 15 -3 26 3 18 10 20 9 15 -6 -4 -9
-7 -19 -7 -21 0 -2 -7 -4 -16 -4 -12 0 -15 -6 -10 -25 15 -60 26 -77 46 -72
23 6 27 -11 5 -19 -24 -10 -18 -35 33 -135 49 -96 111 -188 165 -246 25 -26
33 -30 49 -22 11 6 23 7 26 3 4 -4 1 -9 -5 -11 -23 -8 -14 -30 32 -72 42 -39
75 -53 75 -31 0 13 37 13 45 1 3 -5 -4 -12 -15 -16 -29 -9 -25 -19 19 -48 66
-44 78 -43 163 13 177 116 337 317 413 516 64 166 88 330 94 645 1 26 -2 27
-96 44 -164 30 -285 67 -418 130 -40 19 -79 35 -87 35 -7 -1 -39 -14 -70 -30z
m187 -290 c29 -29 4 -41 -62 -29 -144 25 -270 -46 -328 -183 -19 -48 -19 -120
0 -186 14 -45 19 -52 41 -52 33 0 74 -42 74 -76 0 -65 -99 -103 -134 -52 -18
25 -21 83 -6 93 5 3 0 25 -12 53 -31 71 -29 181 4 253 35 78 92 137 163 171
55 27 67 29 153 26 63 -3 97 -8 107 -18z m152 -36 c21 -21 25 -32 20 -65 -4
-28 1 -54 15 -86 14 -32 20 -68 21 -117 1 -174 -135 -321 -307 -333 -78 -6
-151 15 -151 42 0 14 6 19 20 17 11 -2 55 -6 98 -9 69 -5 83 -2 132 21 109 54
172 162 163 280 -7 82 -30 126 -65 126 -67 0 -98 89 -47 129 36 28 70 26 101
-5z m-194 -88 c39 -17 92 -71 106 -109 19 -50 13 -126 -13 -171 -103 -176
-366 -108 -366 94 0 28 6 65 14 83 16 37 65 86 104 103 37 17 116 17 155 0z"/>
<path d="M3874 4525 c-7 -17 12 -45 31 -45 19 0 36 25 29 44 -8 20 -53 21 -60
1z"/>
<path d="M4326 4964 c-7 -19 10 -44 29 -44 19 0 36 25 29 44 -3 9 -16 16 -29
16 -13 0 -26 -7 -29 -16z"/>
<path d="M4117 4862 c-29 -32 -22 -52 18 -52 27 0 35 4 35 18 0 11 -8 26 -18
36 -18 15 -20 15 -35 -2z"/>
<path d="M4027 4842 c-22 -24 -21 -32 3 -32 11 0 20 4 20 9 0 5 3 16 6 25 8
22 -9 20 -29 -2z"/>
<path d="M4214 4844 c3 -9 6 -20 6 -25 0 -5 9 -9 20 -9 25 0 26 12 2 33 -23
21 -36 22 -28 1z"/>
<path d="M3987 4764 c-4 -4 -7 -20 -7 -36 0 -25 4 -28 31 -28 28 0 30 2 27 33
-2 23 -8 33 -23 35 -12 2 -24 0 -28 -4z"/>
<path d="M4097 4764 c-4 -4 -7 -20 -7 -36 0 -27 2 -28 46 -28 45 0 45 0 42 33
-3 29 -7 32 -38 35 -20 2 -39 0 -43 -4z"/>
<path d="M4237 4764 c-4 -4 -7 -20 -7 -36 0 -25 4 -28 31 -28 28 0 30 2 27 33
-2 23 -8 33 -23 35 -12 2 -24 0 -28 -4z"/>
<path d="M4010 4652 c0 -5 11 -19 25 -32 28 -26 30 -24 15 14 -9 24 -40 37
-40 18z"/>
<path d="M4100 4638 c1 -25 22 -58 37 -58 11 0 33 43 33 65 0 10 -11 15 -35
15 -30 0 -35 -3 -35 -22z"/>
<path d="M4220 4634 c-15 -38 -13 -40 15 -14 29 27 32 40 10 40 -9 0 -20 -12
-25 -26z"/>
<path d="M3740 2815 c-210 -67 -245 -369 -56 -480 67 -39 140 -49 225 -30 l71
17 0 40 0 40 -25 -31 c-84 -99 -259 -43 -326 104 -44 96 -8 230 79 290 37 25
55 30 118 33 l75 4 34 -37 35 -36 0 36 c0 29 -5 37 -27 46 -46 18 -153 20
-203 4z"/>
<path d="M4206 2810 c-103 -40 -166 -136 -166 -250 1 -179 151 -299 319 -256
137 35 211 127 211 262 0 191 -183 314 -364 244z m184 -25 c33 -18 84 -72 105
-114 23 -46 30 -131 15 -185 -14 -50 -67 -119 -109 -140 -105 -55 -230 -3
-287 119 -76 162 44 360 206 338 25 -3 56 -11 70 -18z"/>
<path d="M6250 2811 c-66 -23 -140 -97 -158 -158 -20 -66 -15 -151 12 -208 55
-120 191 -174 344 -136 52 13 52 13 52 53 l0 40 -25 -31 c-47 -55 -131 -64
-213 -22 -158 82 -177 316 -34 416 40 27 51 30 124 30 79 0 81 0 109 -35 l29
-34 0 37 c0 32 -4 39 -27 48 -53 21 -154 21 -213 0z"/>
<path d="M1414 2804 c24 -23 24 -449 0 -482 l-15 -22 160 0 161 0 -1 48 c0 26
-3 40 -6 32 -16 -44 -33 -50 -135 -50 l-98 0 0 120 0 120 78 0 c47 0 83 -5 90
-12 9 -9 12 -3 12 31 0 39 -1 41 -16 27 -11 -12 -36 -16 -90 -16 l-74 0 0 100
0 100 90 0 c77 0 93 -3 110 -20 l20 -20 0 30 0 30 -151 0 c-137 0 -149 -1
-135 -16z"/>
<path d="M1791 2810 c9 -5 58 -120 109 -255 51 -135 96 -242 100 -238 5 4 47
114 94 243 47 129 94 241 103 248 14 10 10 12 -28 12 -28 0 -39 -3 -31 -9 8
-5 12 -15 10 -23 -9 -37 -134 -368 -139 -368 -11 0 -140 364 -136 382 4 16 -2
18 -46 18 -37 -1 -47 -3 -36 -10z"/>
<path d="M2308 2808 c15 -15 17 -474 2 -483 -31 -19 4 -25 145 -25 l155 0 0
43 c-1 36 -2 39 -12 22 -18 -32 -28 -35 -130 -35 l-98 0 0 120 0 120 84 0 c58
0 86 -4 89 -12 3 -7 6 5 6 27 1 30 -2 36 -11 27 -7 -7 -43 -12 -90 -12 l-78 0
0 100 0 100 92 0 c71 0 95 -4 110 -17 17 -15 18 -15 18 10 l0 27 -147 0 c-114
0 -144 -3 -135 -12z"/>
<path d="M2708 2813 c17 -7 18 -483 0 -501 -9 -9 -2 -12 32 -12 41 0 42 1 26
19 -14 16 -16 43 -14 225 l3 207 144 -226 c192 -303 185 -304 189 24 1 160 6
249 13 258 9 10 3 13 -30 13 -39 0 -41 -1 -27 -16 14 -13 16 -47 16 -220 0
-112 -2 -204 -4 -204 -2 0 -66 99 -142 220 l-139 219 -40 0 c-22 0 -34 -3 -27
-6z"/>
<path d="M3190 2783 c0 -37 0 -37 16 -15 14 20 23 23 72 20 l57 -3 3 -219 c2
-184 0 -223 -13 -242 l-15 -24 52 0 c40 0 49 3 40 12 -9 9 -12 77 -12 245 l0
233 53 0 c57 0 68 -5 85 -35 10 -17 11 -14 12 23 l0 42 -175 0 -175 0 0 -37z"/>
<path d="M4678 2813 c17 -7 18 -483 0 -501 -9 -9 -2 -12 32 -12 41 0 42 1 26
19 -14 16 -16 43 -14 225 l3 208 141 -224 c120 -189 145 -223 165 -223 l24 0
3 244 c1 160 6 249 13 258 9 10 3 13 -32 13 -37 0 -40 -2 -26 -13 16 -11 17
-33 15 -221 l-3 -210 -140 222 -140 221 -40 0 c-22 0 -34 -3 -27 -6z"/>
<path d="M5198 2808 c9 -9 12 -78 12 -248 0 -170 -3 -239 -12 -248 -9 -9 -4
-12 25 -12 37 0 45 8 27 26 -7 7 -9 86 -8 217 l3 207 141 -222 c120 -189 145
-223 165 -223 l24 0 3 244 c1 160 6 249 13 258 9 10 3 13 -30 13 -39 0 -41 -1
-27 -16 14 -13 16 -47 16 -220 0 -113 -3 -203 -7 -200 -5 2 -69 101 -143 220
l-135 215 -39 1 c-31 0 -37 -3 -28 -12z"/>
<path d="M5718 2808 c16 -16 17 -460 2 -489 -10 -18 -6 -19 145 -19 l155 0 0
37 c0 37 0 37 -16 15 -14 -20 -23 -22 -120 -22 l-104 0 0 121 0 120 90 -3 90
-3 0 30 c0 22 -3 26 -12 17 -7 -7 -43 -12 -90 -12 l-79 0 3 98 3 97 89 3 c72
2 92 0 107 -14 18 -16 19 -16 19 9 l0 27 -147 0 c-114 0 -144 -3 -135 -12z"/>
<path d="M6530 2783 c0 -37 0 -37 16 -15 13 19 24 22 75 22 l59 0 0 -227 c0
-197 -2 -229 -17 -245 -15 -17 -14 -18 42 -18 56 0 57 1 42 18 -15 16 -17 48
-17 245 l0 227 59 0 c51 0 62 -3 75 -22 16 -22 16 -22 16 15 l0 37 -175 0
-175 0 0 -37z"/>
<path d="M3181 1938 c-1 -9 3 -19 8 -23 6 -3 24 -31 42 -62 18 -31 34 -52 36
-46 2 5 -11 33 -29 61 -18 28 -38 59 -45 69 -11 16 -12 16 -12 1z"/>
<path d="M3370 1928 c0 -12 3 -18 7 -14 4 3 25 -22 47 -56 22 -36 41 -57 44
-49 2 7 0 16 -5 20 -5 3 -26 32 -46 64 -20 31 -39 57 -42 57 -3 0 -5 -10 -5
-22z"/>
<path d="M3570 1875 l0 -75 43 2 42 1 -37 4 c-34 4 -38 7 -38 33 0 24 5 29 28
33 l27 4 -27 2 c-24 1 -28 5 -28 30 0 26 4 30 33 34 31 4 31 4 -5 5 l-38 2 0
-75z"/>
<path d="M3917 1943 c20 -4 22 -11 26 -76 l3 -72 2 72 c2 66 4 72 25 76 12 2
0 4 -28 4 -27 0 -40 -2 -28 -4z"/>
<path d="M4382 1950 c-2 -3 -4 -38 -5 -78 l-2 -72 40 2 c36 1 37 2 8 5 l-32 4
-4 72 c-1 40 -4 70 -5 67z"/>
<path d="M4542 1878 l-2 -78 38 2 c36 1 36 1 5 5 l-32 4 -4 72 -3 72 -2 -77z"/>
<path d="M5040 1943 c0 -16 86 -144 92 -138 3 3 -15 36 -39 73 -52 78 -53 79
-53 65z"/>
<path d="M5430 1875 l0 -75 43 2 42 1 -37 4 c-34 4 -38 7 -38 34 0 25 4 29 28
30 l27 1 -25 7 c-38 11 -35 54 5 62 29 6 29 7 -7 8 l-38 1 0 -75z"/>
<path d="M2771 1914 c-12 -15 -21 -31 -21 -36 0 -17 31 -68 41 -68 5 0 3 10
-5 22 -21 29 -20 67 1 90 9 10 13 18 10 18 -3 0 -15 -12 -26 -26z"/>
<path d="M3055 1920 c12 -13 16 -31 13 -60 -3 -36 -2 -39 9 -24 7 10 13 27 13
39 0 24 -26 65 -42 65 -6 0 -3 -9 7 -20z"/>
<path d="M3737 1922 c-24 -26 -21 -75 5 -98 l22 -19 -17 25 c-21 31 -22 59 -1
88 18 27 13 29 -9 4z"/>
<path d="M4912 1923 c23 -28 28 -51 18 -81 -9 -25 -9 -26 5 -8 8 11 15 29 15
41 0 24 -26 65 -42 65 -7 0 -5 -7 4 -17z"/>
<path d="M2950 1911 c-15 -30 -12 -56 10 -82 l20 -24 -17 32 c-15 26 -16 37
-6 62 13 35 9 41 -7 12z"/>
<path d="M4237 1902 c3 -18 15 -50 25 -70 19 -35 20 -35 13 -7 -3 17 -15 48
-25 70 -18 40 -18 40 -13 7z"/>
<path d="M4811 1912 c-16 -31 -13 -57 9 -83 l21 -24 -16 34 c-14 27 -15 39 -6
59 14 30 7 42 -8 14z"/>
<path d="M5242 1918 c-17 -17 -15 -74 4 -92 22 -23 28 -20 10 6 -19 27 -21 69
-4 86 7 7 10 12 7 12 -3 0 -10 -5 -17 -12z"/>
</g>
</svg>
