<svg version="1.1" id="Layer_1" xmlns="http://www.w3.org/2000/svg" xmlns:xlink="http://www.w3.org/1999/xlink" x="0px" y="0px"
	 width="100%" viewBox="0 0 795 353" enable-background="new 0 0 795 353" xml:space="preserve">
<path fill="#FFFFFF" opacity="1.000000" stroke="none" 
	d="
M535.000000,354.000000 
	C356.666718,354.000000 178.833420,354.000000 1.000095,354.000000 
	C1.000064,236.333405 1.000064,118.666809 1.000032,1.000159 
	C265.999847,1.000106 530.999695,1.000106 795.999634,1.000053 
	C795.999756,118.666504 795.999756,236.333008 795.999878,353.999756 
	C709.166687,354.000000 622.333313,354.000000 535.000000,354.000000 
M117.054276,180.493927 
	C117.055641,184.492371 117.077934,188.490967 117.051117,192.489227 
	C117.032814,195.219025 117.980782,197.015533 121.047066,197.012909 
	C131.209747,197.004181 141.374176,197.096481 151.532593,196.888672 
	C152.634872,196.866104 153.702362,195.142731 154.785980,194.208252 
	C153.661636,193.143295 152.694550,191.744766 151.363892,191.117462 
	C150.271729,190.602570 148.747345,191.000992 147.414536,191.000793 
	C139.649796,190.999573 131.885056,191.000198 124.164932,191.000198 
	C124.164932,181.402374 124.164932,172.474670 124.164932,163.096191 
	C131.868744,163.096191 139.328171,163.203705 146.778000,162.984573 
	C147.945786,162.950226 149.069946,161.432358 150.214294,160.600464 
	C149.135437,159.492630 148.214005,158.108597 146.923111,157.372742 
	C146.042206,156.870590 144.645294,157.272339 143.479080,157.272247 
	C137.052078,157.271774 130.625076,157.272018 124.201263,157.272018 
	C124.201263,148.784149 124.201263,141.045990 124.201263,132.901337 
	C132.955444,132.901337 141.422104,132.871887 149.888321,132.920273 
	C152.257095,132.933807 154.716934,132.749496 153.936508,129.660172 
	C153.637665,128.477203 151.325745,127.065109 149.896393,127.025932 
	C141.073135,126.784142 132.239960,126.892807 123.410103,126.908295 
	C117.242424,126.919106 117.063278,127.101616 117.058205,133.514374 
	C117.046074,148.841705 117.054283,164.169052 117.054276,180.493927 
M367.066254,188.407730 
	C377.560028,200.862701 395.588501,199.246262 405.841156,192.955063 
	C409.056458,190.982117 411.299835,188.561310 408.651093,184.357834 
	C405.459747,186.103760 402.541077,188.020935 399.380920,189.374084 
	C385.528564,195.305450 371.701019,189.247696 368.411865,174.941696 
	C366.814941,167.996216 366.484009,160.271164 367.690094,153.262146 
	C371.184601,132.953888 387.385345,126.382210 404.779419,137.487732 
	C405.924683,138.218964 407.216003,138.721405 408.439362,139.330261 
	C408.945129,138.945343 409.450867,138.560410 409.956604,138.175491 
	C408.897339,135.895294 408.464386,132.680008 406.678894,131.484024 
	C393.362610,122.564339 374.795013,124.719467 366.052368,138.252396 
	C356.959259,152.327866 357.125977,173.677567 367.066254,188.407730 
M610.497864,172.254730 
	C617.154480,172.240479 623.820129,172.406296 630.460449,172.070068 
	C631.902893,171.997025 634.214233,170.331558 634.491943,169.046585 
	C636.313171,160.618027 630.659180,149.936478 623.031982,146.619583 
	C613.936829,142.664291 602.471680,145.364609 596.772522,152.804321 
	C589.937561,161.726639 589.209473,178.837799 595.260254,188.342072 
	C601.599792,198.299942 622.250305,201.725815 631.240173,194.093811 
	C632.380798,193.125504 632.305054,190.724442 632.969666,188.357483 
	C607.204163,194.780884 596.813110,189.799088 598.770813,172.254440 
	C602.284241,172.254440 605.889221,172.254440 610.497864,172.254730 
M251.319565,153.262436 
	C241.904404,140.565872 221.820694,142.423615 214.886749,156.706314 
	C211.088959,164.529129 211.024872,172.781418 212.940201,181.068893 
	C215.216705,190.919113 221.566559,197.005890 231.654327,197.547241 
	C237.479599,197.859848 243.450302,196.381348 249.282227,195.309982 
	C252.825272,194.659103 254.205124,192.302567 252.725784,189.147858 
	C246.625381,190.170288 240.812759,191.880722 234.976807,191.964417 
	C223.919006,192.122971 217.659622,183.906265 219.470032,172.416550 
	C220.206421,172.364197 220.999100,172.260712 221.792038,172.258652 
	C231.282608,172.233948 240.774841,172.118454 250.263016,172.263657 
	C253.968552,172.320358 255.737000,170.864807 255.025711,167.260590 
	C254.136429,162.754364 252.872147,158.322144 251.319565,153.262436 
M447.823120,145.314606 
	C432.317749,143.846252 422.468658,149.141022 419.757538,161.904572 
	C418.390137,168.342026 418.562225,175.505463 419.801636,182.004333 
	C421.672516,191.814407 428.961731,197.100876 438.960663,197.866776 
	C449.493744,198.673569 458.432281,193.977142 462.305817,185.197327 
	C466.073853,176.656570 466.301208,167.790344 463.375244,158.965805 
	C461.009796,151.831604 456.141907,147.188339 447.823120,145.314606 
M551.050659,153.242218 
	C561.542175,147.218887 569.531799,151.459488 570.115540,163.537582 
	C570.420593,169.849640 570.286133,176.183609 570.320801,182.507843 
	C570.346802,187.261414 570.325928,192.015259 570.325928,196.782928 
	C572.990967,196.782928 574.859131,196.782928 576.887207,196.782928 
	C576.887207,185.007858 577.153320,173.691727 576.788696,162.395950 
	C576.564941,155.464111 574.154480,149.176056 567.065979,146.260086 
	C559.926941,143.323334 553.385925,145.049591 547.458374,149.681046 
	C546.360596,150.538757 545.270447,151.406235 543.959778,152.440445 
	C542.590271,144.414139 542.590271,144.414139 537.335571,146.416565 
	C537.335571,163.185104 537.335571,179.928665 537.335571,196.851624 
	C539.515259,196.851624 541.406250,196.851624 543.768555,196.851624 
	C543.768555,187.157196 544.256042,177.831863 543.604126,168.586884 
	C543.138062,161.977570 545.380066,157.392853 551.050659,153.242218 
M486.080170,193.959595 
	C486.080444,185.294571 486.624908,176.585449 485.927521,167.976944 
	C485.234375,159.421387 490.037994,155.049210 496.426758,151.662872 
	C502.825409,148.271286 509.974762,151.427979 511.832581,158.390060 
	C512.719727,161.714432 512.865967,165.298660 512.918396,168.771652 
	C513.058350,178.053299 512.966003,187.338455 512.966003,196.791138 
	C515.364014,196.791138 517.235657,196.791138 519.050415,196.791138 
	C519.050415,184.386948 519.625610,172.375610 518.891113,160.444901 
	C518.133545,148.140121 507.122284,141.637970 495.962097,146.309479 
	C492.539886,147.741959 489.562653,150.237518 486.122040,152.410202 
	C486.060486,151.488785 485.916962,150.564499 485.953400,149.647354 
	C486.048096,147.263367 485.787292,145.314743 482.639801,145.348831 
	C479.252319,145.385544 479.675934,147.704330 479.682983,149.873474 
	C479.698730,154.705856 479.687775,159.538300 479.687775,164.370728 
	C479.687775,175.152908 479.687775,185.935074 479.687775,198.629990 
	C482.606934,196.891617 484.339905,195.859634 486.080170,193.959595 
M280.565948,156.147324 
	C281.833557,155.073135 283.014221,153.870193 284.383057,152.945892 
	C292.542725,147.436050 301.127533,150.988403 302.717072,160.635300 
	C303.200134,163.566971 303.087616,166.610229 303.102295,169.603088 
	C303.146179,178.565262 303.118073,187.527802 303.118073,196.724808 
	C305.548309,196.724808 307.538635,196.724808 309.774231,196.724808 
	C309.774231,185.896194 309.795898,175.586777 309.752136,165.277618 
	C309.745117,163.624191 309.432526,161.973190 309.283234,160.319077 
	C307.864349,144.594803 291.587463,140.921707 280.926666,149.166748 
	C279.421326,150.330963 277.997650,151.600723 276.193420,153.107971 
	C276.067535,150.354034 275.970764,148.237015 275.863068,145.881378 
	C273.848022,145.881378 272.011963,145.881378 270.192871,145.881378 
	C270.192871,163.150482 270.192871,179.906509 270.192871,196.798157 
	C272.322540,196.798157 274.193237,196.798157 276.408905,196.798157 
	C276.408905,186.226120 276.569672,176.084061 276.326172,165.951706 
	C276.234680,162.145493 277.132050,159.120514 280.565948,156.147324 
M173.915573,182.734375 
	C175.128113,186.009354 176.429382,189.254990 177.525208,192.568558 
	C178.407883,195.237534 179.308655,197.363998 182.841507,197.376053 
	C186.262131,197.387711 187.289230,195.586624 188.298630,192.804092 
	C193.402451,178.734894 198.709412,164.739456 203.912613,150.706085 
	C204.456375,149.239548 204.786102,147.693634 205.211899,146.195908 
	C200.701202,144.518402 198.521759,145.773804 197.161560,149.824066 
	C192.841095,162.689178 188.234238,175.458130 183.339325,189.399933 
	C182.290802,186.881409 181.615112,185.434647 181.077240,183.938339 
	C177.026718,172.670380 172.856918,161.441818 169.044037,150.093567 
	C167.535904,145.604889 165.173035,144.418930 160.406342,146.383392 
	C164.878830,158.397217 169.271530,170.196732 173.915573,182.734375 
M665.018188,191.941254 
	C658.905518,190.874741 654.885864,187.107971 654.020996,181.225266 
	C653.140259,175.234787 652.548035,168.873901 653.606873,162.995316 
	C655.738525,151.159836 666.623962,147.052826 676.869690,153.486725 
	C678.637817,154.597046 680.362305,155.776764 682.280701,157.038696 
	C684.221436,153.431702 683.473389,150.992355 680.654907,148.882935 
	C669.800232,140.758911 653.620422,144.946075 648.346069,157.441818 
	C645.211304,164.868561 645.345276,172.638596 646.656982,180.468643 
	C649.815369,199.321426 668.714722,201.509872 680.516968,193.754318 
	C684.196594,191.336380 684.530579,189.369461 682.926514,186.962219 
	C676.953369,188.722916 671.399841,190.359909 665.018188,191.941254 
M334.966278,143.521591 
	C334.943604,141.191635 334.840790,138.858932 334.920471,136.532486 
	C335.002350,134.139343 334.770294,132.189987 331.657745,132.166534 
	C328.682159,132.144104 328.083710,133.792511 328.206604,136.354614 
	C328.348480,139.312973 328.239594,142.283371 328.239594,145.689209 
	C325.852051,145.689209 323.962036,145.372818 322.259796,145.801743 
	C321.146545,146.082291 320.305450,147.442902 319.342438,148.319748 
	C320.382233,149.253738 321.287018,150.662231 322.494781,151.005783 
	C324.132477,151.471649 326.002258,151.121719 328.137848,151.121719 
	C328.137848,154.169525 328.102325,156.639374 328.144287,159.107895 
	C328.296906,168.088104 328.013367,177.107010 328.770264,186.037094 
	C329.574860,195.530182 336.550354,199.740875 345.785004,197.400742 
	C349.491058,196.461578 350.627380,194.501465 349.448181,190.507446 
	C347.803192,191.003891 346.441162,191.487274 345.043762,191.823898 
	C339.596191,193.136215 335.587402,191.087723 335.347748,185.629410 
	C334.847992,174.247192 335.196533,162.827744 335.196533,151.156342 
	C339.059845,151.156342 342.569763,151.389709 346.020966,151.041428 
	C347.400421,150.902222 348.650391,149.480331 349.959320,148.642334 
	C348.622253,147.666809 347.401245,146.133896 345.925079,145.826569 
	C342.361633,145.084702 338.678955,144.915482 334.966278,143.521591 
M698.527466,136.049225 
	C698.527466,139.137573 698.527466,142.225906 698.527466,145.193726 
	C689.233032,146.310989 689.233032,146.310989 690.542053,150.962067 
	C692.953735,151.068909 695.405396,151.177536 698.399597,151.310196 
	C698.399597,153.374176 698.379639,155.155319 698.402893,156.935913 
	C698.526978,166.422516 698.357544,175.925705 698.877319,185.390884 
	C699.414734,195.178192 706.329834,199.754608 715.843140,197.418549 
	C719.519592,196.515793 720.834351,194.617203 719.555359,190.708099 
	C718.374451,190.981216 717.279785,191.189453 716.210693,191.488968 
	C709.512024,193.365768 705.693298,191.466232 705.360229,184.737656 
	C704.812805,173.676773 705.211792,162.569046 705.211792,151.127991 
	C708.905945,151.127991 712.205505,151.187958 715.501465,151.105682 
	C717.501953,151.055740 720.519775,151.841522 719.844116,148.323822 
	C719.634949,147.235229 717.212463,146.013184 715.695007,145.848129 
	C712.290466,145.477829 708.817932,145.732132 704.996704,145.732132 
	C704.996704,142.056473 705.221863,138.889008 704.886169,135.782150 
	C704.751343,134.534790 703.384277,133.420593 702.578003,132.245804 
	C701.230225,133.224487 699.882507,134.203186 698.527466,136.049225 
z"/>
<path fill="#09B356" opacity="1.000000" stroke="none" 
	d="
M117.054276,179.995148 
	C117.054283,164.169052 117.046074,148.841705 117.058205,133.514374 
	C117.063278,127.101616 117.242424,126.919106 123.410103,126.908295 
	C132.239960,126.892807 141.073135,126.784142 149.896393,127.025932 
	C151.325745,127.065109 153.637665,128.477203 153.936508,129.660172 
	C154.716934,132.749496 152.257095,132.933807 149.888321,132.920273 
	C141.422104,132.871887 132.955444,132.901337 124.201263,132.901337 
	C124.201263,141.045990 124.201263,148.784149 124.201263,157.272018 
	C130.625076,157.272018 137.052078,157.271774 143.479080,157.272247 
	C144.645294,157.272339 146.042206,156.870590 146.923111,157.372742 
	C148.214005,158.108597 149.135437,159.492630 150.214294,160.600464 
	C149.069946,161.432358 147.945786,162.950226 146.778000,162.984573 
	C139.328171,163.203705 131.868744,163.096191 124.164932,163.096191 
	C124.164932,172.474670 124.164932,181.402374 124.164932,191.000198 
	C131.885056,191.000198 139.649796,190.999573 147.414536,191.000793 
	C148.747345,191.000992 150.271729,190.602570 151.363892,191.117462 
	C152.694550,191.744766 153.661636,193.143295 154.785980,194.208252 
	C153.702362,195.142731 152.634872,196.866104 151.532593,196.888672 
	C141.374176,197.096481 131.209747,197.004181 121.047066,197.012909 
	C117.980782,197.015533 117.032814,195.219025 117.051117,192.489227 
	C117.077934,188.490967 117.055641,184.492371 117.054276,179.995148 
z"/>
<path fill="#0CB458" opacity="1.000000" stroke="none" 
	d="
M366.866943,188.109406 
	C357.125977,173.677567 356.959259,152.327866 366.052368,138.252396 
	C374.795013,124.719467 393.362610,122.564339 406.678894,131.484024 
	C408.464386,132.680008 408.897339,135.895294 409.956604,138.175491 
	C409.450867,138.560410 408.945129,138.945343 408.439362,139.330261 
	C407.216003,138.721405 405.924683,138.218964 404.779419,137.487732 
	C387.385345,126.382210 371.184601,132.953888 367.690094,153.262146 
	C366.484009,160.271164 366.814941,167.996216 368.411865,174.941696 
	C371.701019,189.247696 385.528564,195.305450 399.380920,189.374084 
	C402.541077,188.020935 405.459747,186.103760 408.651093,184.357834 
	C411.299835,188.561310 409.056458,190.982117 405.841156,192.955063 
	C395.588501,199.246262 377.560028,200.862701 366.866943,188.109406 
z"/>
<path fill="#0AB357" opacity="1.000000" stroke="none" 
	d="
M609.995972,172.254578 
	C605.889221,172.254440 602.284241,172.254440 598.770813,172.254440 
	C596.813110,189.799088 607.204163,194.780884 632.969666,188.357483 
	C632.305054,190.724442 632.380798,193.125504 631.240173,194.093811 
	C622.250305,201.725815 601.599792,198.299942 595.260254,188.342072 
	C589.209473,178.837799 589.937561,161.726639 596.772522,152.804321 
	C602.471680,145.364609 613.936829,142.664291 623.031982,146.619583 
	C630.659180,149.936478 636.313171,160.618027 634.491943,169.046585 
	C634.214233,170.331558 631.902893,171.997025 630.460449,172.070068 
	C623.820129,172.406296 617.154480,172.240479 609.995972,172.254578 
M602.846069,166.972961 
	C611.119751,166.972961 619.393433,166.972961 627.633911,166.972961 
	C628.187744,157.180328 623.470093,151.153473 615.235596,150.653122 
	C605.254944,150.046646 599.263428,155.762100 598.507568,166.756958 
	C599.653198,166.828979 600.797852,166.900940 602.846069,166.972961 
z"/>
<path fill="#08B356" opacity="1.000000" stroke="none" 
	d="
M251.544647,153.560211 
	C252.872147,158.322144 254.136429,162.754364 255.025711,167.260590 
	C255.737000,170.864807 253.968552,172.320358 250.263016,172.263657 
	C240.774841,172.118454 231.282608,172.233948 221.792038,172.258652 
	C220.999100,172.260712 220.206421,172.364197 219.470032,172.416550 
	C217.659622,183.906265 223.919006,192.122971 234.976807,191.964417 
	C240.812759,191.880722 246.625381,190.170288 252.725784,189.147858 
	C254.205124,192.302567 252.825272,194.659103 249.282227,195.309982 
	C243.450302,196.381348 237.479599,197.859848 231.654327,197.547241 
	C221.566559,197.005890 215.216705,190.919113 212.940201,181.068893 
	C211.024872,172.781418 211.088959,164.529129 214.886749,156.706314 
	C221.820694,142.423615 241.904404,140.565872 251.544647,153.560211 
M248.297012,164.657837 
	C247.236023,154.755325 242.208939,150.035629 233.273819,150.553223 
	C224.690903,151.050400 219.054184,157.478714 219.235565,166.948364 
	C228.344803,166.948364 237.467087,166.972549 246.588394,166.889679 
	C247.149384,166.884583 247.702698,166.034409 248.297012,164.657837 
z"/>
<path fill="#0BB357" opacity="1.000000" stroke="none" 
	d="
M448.225494,145.457504 
	C456.141907,147.188339 461.009796,151.831604 463.375244,158.965805 
	C466.301208,167.790344 466.073853,176.656570 462.305817,185.197327 
	C458.432281,193.977142 449.493744,198.673569 438.960663,197.866776 
	C428.961731,197.100876 421.672516,191.814407 419.801636,182.004333 
	C418.562225,175.505463 418.390137,168.342026 419.757538,161.904572 
	C422.468658,149.141022 432.317749,143.846252 448.225494,145.457504 
M456.432220,182.567520 
	C458.914642,175.609497 459.015503,168.543427 456.952728,161.521896 
	C454.858459,154.393204 450.179962,151.018326 442.620148,150.701004 
	C434.928131,150.378159 429.039764,153.457748 427.181641,160.559738 
	C425.717224,166.156769 425.448395,172.337982 426.009003,178.128021 
	C426.793945,186.234741 431.488800,190.781387 438.238983,191.887558 
	C446.173492,193.187820 452.017059,190.378662 456.432220,182.567520 
z"/>
<path fill="#0FB55B" opacity="1.000000" stroke="none" 
	d="
M550.764832,153.493164 
	C545.380066,157.392853 543.138062,161.977570 543.604126,168.586884 
	C544.256042,177.831863 543.768555,187.157196 543.768555,196.851624 
	C541.406250,196.851624 539.515259,196.851624 537.335571,196.851624 
	C537.335571,179.928665 537.335571,163.185104 537.335571,146.416565 
	C542.590271,144.414139 542.590271,144.414139 543.959778,152.440445 
	C545.270447,151.406235 546.360596,150.538757 547.458374,149.681046 
	C553.385925,145.049591 559.926941,143.323334 567.065979,146.260086 
	C574.154480,149.176056 576.564941,155.464111 576.788696,162.395950 
	C577.153320,173.691727 576.887207,185.007858 576.887207,196.782928 
	C574.859131,196.782928 572.990967,196.782928 570.325928,196.782928 
	C570.325928,192.015259 570.346802,187.261414 570.320801,182.507843 
	C570.286133,176.183609 570.420593,169.849640 570.115540,163.537582 
	C569.531799,151.459488 561.542175,147.218887 550.764832,153.493164 
z"/>
<path fill="#05B153" opacity="1.000000" stroke="none" 
	d="
M486.076538,194.393616 
	C484.339905,195.859634 482.606934,196.891617 479.687775,198.629990 
	C479.687775,185.935074 479.687775,175.152908 479.687775,164.370728 
	C479.687775,159.538300 479.698730,154.705856 479.682983,149.873474 
	C479.675934,147.704330 479.252319,145.385544 482.639801,145.348831 
	C485.787292,145.314743 486.048096,147.263367 485.953400,149.647354 
	C485.916962,150.564499 486.060486,151.488785 486.122040,152.410202 
	C489.562653,150.237518 492.539886,147.741959 495.962097,146.309479 
	C507.122284,141.637970 518.133545,148.140121 518.891113,160.444901 
	C519.625610,172.375610 519.050415,184.386948 519.050415,196.791138 
	C517.235657,196.791138 515.364014,196.791138 512.966003,196.791138 
	C512.966003,187.338455 513.058350,178.053299 512.918396,168.771652 
	C512.865967,165.298660 512.719727,161.714432 511.832581,158.390060 
	C509.974762,151.427979 502.825409,148.271286 496.426758,151.662872 
	C490.037994,155.049210 485.234375,159.421387 485.927521,167.976944 
	C486.624908,176.585449 486.080444,185.294571 486.076538,194.393616 
z"/>
<path fill="#0AB357" opacity="1.000000" stroke="none" 
	d="
M280.305908,156.428955 
	C277.132050,159.120514 276.234680,162.145493 276.326172,165.951706 
	C276.569672,176.084061 276.408905,186.226120 276.408905,196.798157 
	C274.193237,196.798157 272.322540,196.798157 270.192871,196.798157 
	C270.192871,179.906509 270.192871,163.150482 270.192871,145.881378 
	C272.011963,145.881378 273.848022,145.881378 275.863068,145.881378 
	C275.970764,148.237015 276.067535,150.354034 276.193420,153.107971 
	C277.997650,151.600723 279.421326,150.330963 280.926666,149.166748 
	C291.587463,140.921707 307.864349,144.594803 309.283234,160.319077 
	C309.432526,161.973190 309.745117,163.624191 309.752136,165.277618 
	C309.795898,175.586777 309.774231,185.896194 309.774231,196.724808 
	C307.538635,196.724808 305.548309,196.724808 303.118073,196.724808 
	C303.118073,187.527802 303.146179,178.565262 303.102295,169.603088 
	C303.087616,166.610229 303.200134,163.566971 302.717072,160.635300 
	C301.127533,150.988403 292.542725,147.436050 284.383057,152.945892 
	C283.014221,153.870193 281.833557,155.073135 280.305908,156.428955 
z"/>
<path fill="#0AB357" opacity="1.000000" stroke="none" 
	d="
M173.789902,182.365311 
	C169.271530,170.196732 164.878830,158.397217 160.406342,146.383392 
	C165.173035,144.418930 167.535904,145.604889 169.044037,150.093567 
	C172.856918,161.441818 177.026718,172.670380 181.077240,183.938339 
	C181.615112,185.434647 182.290802,186.881409 183.339325,189.399933 
	C188.234238,175.458130 192.841095,162.689178 197.161560,149.824066 
	C198.521759,145.773804 200.701202,144.518402 205.211899,146.195908 
	C204.786102,147.693634 204.456375,149.239548 203.912613,150.706085 
	C198.709412,164.739456 193.402451,178.734894 188.298630,192.804092 
	C187.289230,195.586624 186.262131,197.387711 182.841507,197.376053 
	C179.308655,197.363998 178.407883,195.237534 177.525208,192.568558 
	C176.429382,189.254990 175.128113,186.009354 173.789902,182.365311 
z"/>
<path fill="#0CB458" opacity="1.000000" stroke="none" 
	d="
M665.432251,191.969086 
	C671.399841,190.359909 676.953369,188.722916 682.926514,186.962219 
	C684.530579,189.369461 684.196594,191.336380 680.516968,193.754318 
	C668.714722,201.509872 649.815369,199.321426 646.656982,180.468643 
	C645.345276,172.638596 645.211304,164.868561 648.346069,157.441818 
	C653.620422,144.946075 669.800232,140.758911 680.654907,148.882935 
	C683.473389,150.992355 684.221436,153.431702 682.280701,157.038696 
	C680.362305,155.776764 678.637817,154.597046 676.869690,153.486725 
	C666.623962,147.052826 655.738525,151.159836 653.606873,162.995316 
	C652.548035,168.873901 653.140259,175.234787 654.020996,181.225266 
	C654.885864,187.107971 658.905518,190.874741 665.432251,191.969086 
z"/>
<path fill="#0EB45A" opacity="1.000000" stroke="none" 
	d="
M335.005310,144.018478 
	C338.678955,144.915482 342.361633,145.084702 345.925079,145.826569 
	C347.401245,146.133896 348.622253,147.666809 349.959320,148.642334 
	C348.650391,149.480331 347.400421,150.902222 346.020966,151.041428 
	C342.569763,151.389709 339.059845,151.156342 335.196533,151.156342 
	C335.196533,162.827744 334.847992,174.247192 335.347748,185.629410 
	C335.587402,191.087723 339.596191,193.136215 345.043762,191.823898 
	C346.441162,191.487274 347.803192,191.003891 349.448181,190.507446 
	C350.627380,194.501465 349.491058,196.461578 345.785004,197.400742 
	C336.550354,199.740875 329.574860,195.530182 328.770264,186.037094 
	C328.013367,177.107010 328.296906,168.088104 328.144287,159.107895 
	C328.102325,156.639374 328.137848,154.169525 328.137848,151.121719 
	C326.002258,151.121719 324.132477,151.471649 322.494781,151.005783 
	C321.287018,150.662231 320.382233,149.253738 319.342438,148.319748 
	C320.305450,147.442902 321.146545,146.082291 322.259796,145.801743 
	C323.962036,145.372818 325.852051,145.689209 328.239594,145.689209 
	C328.239594,142.283371 328.348480,139.312973 328.206604,136.354614 
	C328.083710,133.792511 328.682159,132.144104 331.657745,132.166534 
	C334.770294,132.189987 335.002350,134.139343 334.920471,136.532486 
	C334.840790,138.858932 334.943604,141.191635 335.005310,144.018478 
z"/>
<path fill="#09B356" opacity="1.000000" stroke="none" 
	d="
M698.531128,135.615555 
	C699.882507,134.203186 701.230225,133.224487 702.578003,132.245789 
	C703.384277,133.420593 704.751343,134.534790 704.886169,135.782150 
	C705.221863,138.889008 704.996704,142.056473 704.996704,145.732132 
	C708.817932,145.732132 712.290466,145.477829 715.695007,145.848129 
	C717.212463,146.013184 719.634949,147.235229 719.844116,148.323822 
	C720.519775,151.841522 717.501953,151.055740 715.501465,151.105682 
	C712.205505,151.187958 708.905945,151.127991 705.211792,151.127991 
	C705.211792,162.569046 704.812805,173.676773 705.360229,184.737656 
	C705.693298,191.466232 709.512024,193.365768 716.210693,191.488968 
	C717.279785,191.189453 718.374451,190.981216 719.555359,190.708099 
	C720.834351,194.617203 719.519592,196.515793 715.843140,197.418549 
	C706.329834,199.754608 699.414734,195.178192 698.877319,185.390884 
	C698.357544,175.925705 698.526978,166.422516 698.402893,156.935913 
	C698.379639,155.155319 698.399597,153.374176 698.399597,151.310196 
	C695.405396,151.177536 692.953735,151.068909 690.542053,150.962067 
	C689.233032,146.310989 689.233032,146.310989 698.527466,145.193726 
	C698.527466,142.225906 698.527466,139.137573 698.531128,135.615555 
z"/>
<path fill="#FAFDFB" opacity="1.000000" stroke="none" 
	d="
M602.394287,166.972931 
	C600.797852,166.900940 599.653198,166.828979 598.507568,166.756958 
	C599.263428,155.762100 605.254944,150.046646 615.235596,150.653122 
	C623.470093,151.153473 628.187744,157.180328 627.633911,166.972961 
	C619.393433,166.972961 611.119751,166.972961 602.394287,166.972931 
z"/>
<path fill="#FBFEFC" opacity="1.000000" stroke="none" 
	d="
M248.278290,165.117630 
	C247.702698,166.034409 247.149384,166.884583 246.588394,166.889679 
	C237.467087,166.972549 228.344803,166.948364 219.235565,166.948364 
	C219.054184,157.478714 224.690903,151.050400 233.273819,150.553223 
	C242.208939,150.035629 247.236023,154.755325 248.278290,165.117630 
z"/>
<path fill="#FCFEFD" opacity="1.000000" stroke="none" 
	d="
M456.281525,182.926971 
	C452.017059,190.378662 446.173492,193.187820 438.238983,191.887558 
	C431.488800,190.781387 426.793945,186.234741 426.009003,178.128021 
	C425.448395,172.337982 425.717224,166.156769 427.181641,160.559738 
	C429.039764,153.457748 434.928131,150.378159 442.620148,150.701004 
	C450.179962,151.018326 454.858459,154.393204 456.952728,161.521896 
	C459.015503,168.543427 458.914642,175.609497 456.281525,182.926971 
z"/>
</svg>